STARTFONT 2.1
FONT -FontForge-Monospace-Regular-R-Normal--16-150-75-75-C-120-ISO8859-15
SIZE 15 75 75
FONTBOUNDINGBOX 12 11 0 0
COMMENT "Generated by fontforge, http://fontforge.sourceforge.net"
COMMENT "Copyright (c) 2017, Stephanie Gawroriski,,,"
STARTPROPERTIES 34
FOUNDRY "FontForge"
FAMILY_NAME "Monospace"
WEIGHT_NAME "Regular"
SLANT "R"
SETWIDTH_NAME "Normal"
ADD_STYLE_NAME ""
PIXEL_SIZE 16
POINT_SIZE 150
RESOLUTION_X 75
RESOLUTION_Y 75
SPACING "C"
AVERAGE_WIDTH 120
CHARSET_REGISTRY "ISO8859"
CHARSET_ENCODING "15"
FONTNAME_REGISTRY ""
CHARSET_COLLECTIONS "ISO8859-15"
FONT_NAME "monospace"
FACE_NAME "SquirrelJME Monospace"
COPYRIGHT "Copyright (c) 2017, Stephanie Gawroriski,,,"
FONT_VERSION "001.000"
FONT_ASCENT 13
FONT_DESCENT 3
UNDERLINE_POSITION -2
UNDERLINE_THICKNESS 1
X_HEIGHT 10
CAP_HEIGHT 10
RAW_ASCENT 800
RAW_DESCENT 200
NORM_SPACE 12
RELATIVE_WEIGHT 40
RELATIVE_SETWIDTH 50
FIGURE_WIDTH 12
AVG_LOWERCASE_WIDTH 120
AVG_UPPERCASE_WIDTH 120
ENDPROPERTIES
CHARS 193
STARTCHAR uni0000
ENCODING 0
SWIDTH 750 0
DWIDTH 12 0
BBX 11 11 1 0
BITMAP
0400
0E00
1F00
3180
6EC0
FEE0
79C0
3F80
1B00
0E00
0400
ENDCHAR
STARTCHAR space
ENCODING 32
SWIDTH 750 0
DWIDTH 12 0
BBX 1 1 0 0
BITMAP
00
ENDCHAR
STARTCHAR exclam
ENCODING 33
SWIDTH 750 0
DWIDTH 12 0
BBX 11 11 1 0
BITMAP
0400
0E00
1F00
3180
6EC0
FEE0
79C0
3F80
1B00
0E00
0400
ENDCHAR
STARTCHAR quotedbl
ENCODING 34
SWIDTH 750 0
DWIDTH 12 0
BBX 11 11 1 0
BITMAP
0400
0E00
1F00
3180
6EC0
FEE0
79C0
3F80
1B00
0E00
0400
ENDCHAR
STARTCHAR numbersign
ENCODING 35
SWIDTH 750 0
DWIDTH 12 0
BBX 11 11 1 0
BITMAP
0400
0E00
1F00
3180
6EC0
FEE0
79C0
3F80
1B00
0E00
0400
ENDCHAR
STARTCHAR dollar
ENCODING 36
SWIDTH 750 0
DWIDTH 12 0
BBX 11 11 1 0
BITMAP
0400
0E00
1F00
3180
6EC0
FEE0
79C0
3F80
1B00
0E00
0400
ENDCHAR
STARTCHAR percent
ENCODING 37
SWIDTH 750 0
DWIDTH 12 0
BBX 11 11 1 0
BITMAP
0400
0E00
1F00
3180
6EC0
FEE0
79C0
3F80
1B00
0E00
0400
ENDCHAR
STARTCHAR ampersand
ENCODING 38
SWIDTH 750 0
DWIDTH 12 0
BBX 11 11 1 0
BITMAP
0400
0E00
1F00
3180
6EC0
FEE0
79C0
3F80
1B00
0E00
0400
ENDCHAR
STARTCHAR quotesingle
ENCODING 39
SWIDTH 750 0
DWIDTH 12 0
BBX 11 11 1 0
BITMAP
0400
0E00
1F00
3180
6EC0
FEE0
79C0
3F80
1B00
0E00
0400
ENDCHAR
STARTCHAR parenleft
ENCODING 40
SWIDTH 750 0
DWIDTH 12 0
BBX 11 11 1 0
BITMAP
0400
0E00
1F00
3180
6EC0
FEE0
79C0
3F80
1B00
0E00
0400
ENDCHAR
STARTCHAR parenright
ENCODING 41
SWIDTH 750 0
DWIDTH 12 0
BBX 11 11 1 0
BITMAP
0400
0E00
1F00
3180
6EC0
FEE0
79C0
3F80
1B00
0E00
0400
ENDCHAR
STARTCHAR asterisk
ENCODING 42
SWIDTH 750 0
DWIDTH 12 0
BBX 11 11 1 0
BITMAP
0400
0E00
1F00
3180
6EC0
FEE0
79C0
3F80
1B00
0E00
0400
ENDCHAR
STARTCHAR plus
ENCODING 43
SWIDTH 750 0
DWIDTH 12 0
BBX 11 11 1 0
BITMAP
0400
0E00
1F00
3180
6EC0
FEE0
79C0
3F80
1B00
0E00
0400
ENDCHAR
STARTCHAR comma
ENCODING 44
SWIDTH 750 0
DWIDTH 12 0
BBX 11 11 1 0
BITMAP
0400
0E00
1F00
3180
6EC0
FEE0
79C0
3F80
1B00
0E00
0400
ENDCHAR
STARTCHAR hyphen
ENCODING 45
SWIDTH 750 0
DWIDTH 12 0
BBX 11 11 1 0
BITMAP
0400
0E00
1F00
3180
6EC0
FEE0
79C0
3F80
1B00
0E00
0400
ENDCHAR
STARTCHAR period
ENCODING 46
SWIDTH 750 0
DWIDTH 12 0
BBX 11 11 1 0
BITMAP
0400
0E00
1F00
3180
6EC0
FEE0
79C0
3F80
1B00
0E00
0400
ENDCHAR
STARTCHAR slash
ENCODING 47
SWIDTH 750 0
DWIDTH 12 0
BBX 11 11 1 0
BITMAP
0400
0E00
1F00
3180
6EC0
FEE0
79C0
3F80
1B00
0E00
0400
ENDCHAR
STARTCHAR zero
ENCODING 48
SWIDTH 750 0
DWIDTH 12 0
BBX 11 11 1 0
BITMAP
0400
0E00
1F00
3180
6EC0
FEE0
79C0
3F80
1B00
0E00
0400
ENDCHAR
STARTCHAR one
ENCODING 49
SWIDTH 750 0
DWIDTH 12 0
BBX 11 11 1 0
BITMAP
0400
0E00
1F00
3180
6EC0
FEE0
79C0
3F80
1B00
0E00
0400
ENDCHAR
STARTCHAR two
ENCODING 50
SWIDTH 750 0
DWIDTH 12 0
BBX 11 11 1 0
BITMAP
0400
0E00
1F00
3180
6EC0
FEE0
79C0
3F80
1B00
0E00
0400
ENDCHAR
STARTCHAR three
ENCODING 51
SWIDTH 750 0
DWIDTH 12 0
BBX 11 11 1 0
BITMAP
0400
0E00
1F00
3180
6EC0
FEE0
79C0
3F80
1B00
0E00
0400
ENDCHAR
STARTCHAR four
ENCODING 52
SWIDTH 750 0
DWIDTH 12 0
BBX 11 11 1 0
BITMAP
0400
0E00
1F00
3180
6EC0
FEE0
79C0
3F80
1B00
0E00
0400
ENDCHAR
STARTCHAR five
ENCODING 53
SWIDTH 750 0
DWIDTH 12 0
BBX 11 11 1 0
BITMAP
0400
0E00
1F00
3180
6EC0
FEE0
79C0
3F80
1B00
0E00
0400
ENDCHAR
STARTCHAR six
ENCODING 54
SWIDTH 750 0
DWIDTH 12 0
BBX 11 11 1 0
BITMAP
0400
0E00
1F00
3180
6EC0
FEE0
79C0
3F80
1B00
0E00
0400
ENDCHAR
STARTCHAR seven
ENCODING 55
SWIDTH 750 0
DWIDTH 12 0
BBX 11 11 1 0
BITMAP
0400
0E00
1F00
3180
6EC0
FEE0
79C0
3F80
1B00
0E00
0400
ENDCHAR
STARTCHAR eight
ENCODING 56
SWIDTH 750 0
DWIDTH 12 0
BBX 11 11 1 0
BITMAP
0400
0E00
1F00
3180
6EC0
FEE0
79C0
3F80
1B00
0E00
0400
ENDCHAR
STARTCHAR nine
ENCODING 57
SWIDTH 750 0
DWIDTH 12 0
BBX 11 11 1 0
BITMAP
0400
0E00
1F00
3180
6EC0
FEE0
79C0
3F80
1B00
0E00
0400
ENDCHAR
STARTCHAR colon
ENCODING 58
SWIDTH 750 0
DWIDTH 12 0
BBX 11 11 1 0
BITMAP
0400
0E00
1F00
3180
6EC0
FEE0
79C0
3F80
1B00
0E00
0400
ENDCHAR
STARTCHAR semicolon
ENCODING 59
SWIDTH 750 0
DWIDTH 12 0
BBX 11 11 1 0
BITMAP
0400
0E00
1F00
3180
6EC0
FEE0
79C0
3F80
1B00
0E00
0400
ENDCHAR
STARTCHAR less
ENCODING 60
SWIDTH 750 0
DWIDTH 12 0
BBX 11 11 1 0
BITMAP
0400
0E00
1F00
3180
6EC0
FEE0
79C0
3F80
1B00
0E00
0400
ENDCHAR
STARTCHAR equal
ENCODING 61
SWIDTH 750 0
DWIDTH 12 0
BBX 11 11 1 0
BITMAP
0400
0E00
1F00
3180
6EC0
FEE0
79C0
3F80
1B00
0E00
0400
ENDCHAR
STARTCHAR greater
ENCODING 62
SWIDTH 750 0
DWIDTH 12 0
BBX 11 11 1 0
BITMAP
0400
0E00
1F00
3180
6EC0
FEE0
79C0
3F80
1B00
0E00
0400
ENDCHAR
STARTCHAR question
ENCODING 63
SWIDTH 750 0
DWIDTH 12 0
BBX 11 11 1 0
BITMAP
0400
0E00
1F00
3180
6EC0
FEE0
79C0
3F80
1B00
0E00
0400
ENDCHAR
STARTCHAR at
ENCODING 64
SWIDTH 750 0
DWIDTH 12 0
BBX 11 11 1 0
BITMAP
0400
0E00
1F00
3180
6EC0
FEE0
79C0
3F80
1B00
0E00
0400
ENDCHAR
STARTCHAR A
ENCODING 65
SWIDTH 750 0
DWIDTH 12 0
BBX 11 11 1 0
BITMAP
0400
0E00
1F00
3180
6EC0
FEE0
79C0
3F80
1B00
0E00
0400
ENDCHAR
STARTCHAR B
ENCODING 66
SWIDTH 750 0
DWIDTH 12 0
BBX 11 11 1 0
BITMAP
0400
0E00
1F00
3180
6EC0
FEE0
79C0
3F80
1B00
0E00
0400
ENDCHAR
STARTCHAR C
ENCODING 67
SWIDTH 750 0
DWIDTH 12 0
BBX 11 11 1 0
BITMAP
0400
0E00
1F00
3180
6EC0
FEE0
79C0
3F80
1B00
0E00
0400
ENDCHAR
STARTCHAR D
ENCODING 68
SWIDTH 750 0
DWIDTH 12 0
BBX 11 11 1 0
BITMAP
0400
0E00
1F00
3180
6EC0
FEE0
79C0
3F80
1B00
0E00
0400
ENDCHAR
STARTCHAR E
ENCODING 69
SWIDTH 750 0
DWIDTH 12 0
BBX 11 11 1 0
BITMAP
0400
0E00
1F00
3180
6EC0
FEE0
79C0
3F80
1B00
0E00
0400
ENDCHAR
STARTCHAR F
ENCODING 70
SWIDTH 750 0
DWIDTH 12 0
BBX 11 11 1 0
BITMAP
0400
0E00
1F00
3180
6EC0
FEE0
79C0
3F80
1B00
0E00
0400
ENDCHAR
STARTCHAR G
ENCODING 71
SWIDTH 750 0
DWIDTH 12 0
BBX 11 11 1 0
BITMAP
0400
0E00
1F00
3180
6EC0
FEE0
79C0
3F80
1B00
0E00
0400
ENDCHAR
STARTCHAR H
ENCODING 72
SWIDTH 750 0
DWIDTH 12 0
BBX 11 11 1 0
BITMAP
0400
0E00
1F00
3180
6EC0
FEE0
79C0
3F80
1B00
0E00
0400
ENDCHAR
STARTCHAR I
ENCODING 73
SWIDTH 750 0
DWIDTH 12 0
BBX 11 11 1 0
BITMAP
0400
0E00
1F00
3180
6EC0
FEE0
79C0
3F80
1B00
0E00
0400
ENDCHAR
STARTCHAR J
ENCODING 74
SWIDTH 750 0
DWIDTH 12 0
BBX 11 11 1 0
BITMAP
0400
0E00
1F00
3180
6EC0
FEE0
79C0
3F80
1B00
0E00
0400
ENDCHAR
STARTCHAR K
ENCODING 75
SWIDTH 750 0
DWIDTH 12 0
BBX 11 11 1 0
BITMAP
0400
0E00
1F00
3180
6EC0
FEE0
79C0
3F80
1B00
0E00
0400
ENDCHAR
STARTCHAR L
ENCODING 76
SWIDTH 750 0
DWIDTH 12 0
BBX 11 11 1 0
BITMAP
0400
0E00
1F00
3180
6EC0
FEE0
79C0
3F80
1B00
0E00
0400
ENDCHAR
STARTCHAR M
ENCODING 77
SWIDTH 750 0
DWIDTH 12 0
BBX 11 11 1 0
BITMAP
0400
0E00
1F00
3180
6EC0
FEE0
79C0
3F80
1B00
0E00
0400
ENDCHAR
STARTCHAR N
ENCODING 78
SWIDTH 750 0
DWIDTH 12 0
BBX 11 11 1 0
BITMAP
0400
0E00
1F00
3180
6EC0
FEE0
79C0
3F80
1B00
0E00
0400
ENDCHAR
STARTCHAR O
ENCODING 79
SWIDTH 750 0
DWIDTH 12 0
BBX 11 11 1 0
BITMAP
0400
0E00
1F00
3180
6EC0
FEE0
79C0
3F80
1B00
0E00
0400
ENDCHAR
STARTCHAR P
ENCODING 80
SWIDTH 750 0
DWIDTH 12 0
BBX 11 11 1 0
BITMAP
0400
0E00
1F00
3180
6EC0
FEE0
79C0
3F80
1B00
0E00
0400
ENDCHAR
STARTCHAR Q
ENCODING 81
SWIDTH 750 0
DWIDTH 12 0
BBX 11 11 1 0
BITMAP
0400
0E00
1F00
3180
6EC0
FEE0
79C0
3F80
1B00
0E00
0400
ENDCHAR
STARTCHAR R
ENCODING 82
SWIDTH 750 0
DWIDTH 12 0
BBX 11 11 1 0
BITMAP
0400
0E00
1F00
3180
6EC0
FEE0
79C0
3F80
1B00
0E00
0400
ENDCHAR
STARTCHAR S
ENCODING 83
SWIDTH 750 0
DWIDTH 12 0
BBX 11 11 1 0
BITMAP
0400
0E00
1F00
3180
6EC0
FEE0
79C0
3F80
1B00
0E00
0400
ENDCHAR
STARTCHAR T
ENCODING 84
SWIDTH 750 0
DWIDTH 12 0
BBX 11 11 1 0
BITMAP
0400
0E00
1F00
3180
6EC0
FEE0
79C0
3F80
1B00
0E00
0400
ENDCHAR
STARTCHAR U
ENCODING 85
SWIDTH 750 0
DWIDTH 12 0
BBX 11 11 1 0
BITMAP
0400
0E00
1F00
3180
6EC0
FEE0
79C0
3F80
1B00
0E00
0400
ENDCHAR
STARTCHAR V
ENCODING 86
SWIDTH 750 0
DWIDTH 12 0
BBX 11 11 1 0
BITMAP
0400
0E00
1F00
3180
6EC0
FEE0
79C0
3F80
1B00
0E00
0400
ENDCHAR
STARTCHAR W
ENCODING 87
SWIDTH 750 0
DWIDTH 12 0
BBX 11 11 1 0
BITMAP
0400
0E00
1F00
3180
6EC0
FEE0
79C0
3F80
1B00
0E00
0400
ENDCHAR
STARTCHAR X
ENCODING 88
SWIDTH 750 0
DWIDTH 12 0
BBX 11 11 1 0
BITMAP
0400
0E00
1F00
3180
6EC0
FEE0
79C0
3F80
1B00
0E00
0400
ENDCHAR
STARTCHAR Y
ENCODING 89
SWIDTH 750 0
DWIDTH 12 0
BBX 11 11 1 0
BITMAP
0400
0E00
1F00
3180
6EC0
FEE0
79C0
3F80
1B00
0E00
0400
ENDCHAR
STARTCHAR Z
ENCODING 90
SWIDTH 750 0
DWIDTH 12 0
BBX 11 11 1 0
BITMAP
0400
0E00
1F00
3180
6EC0
FEE0
79C0
3F80
1B00
0E00
0400
ENDCHAR
STARTCHAR bracketleft
ENCODING 91
SWIDTH 750 0
DWIDTH 12 0
BBX 11 11 1 0
BITMAP
0400
0E00
1F00
3180
6EC0
FEE0
79C0
3F80
1B00
0E00
0400
ENDCHAR
STARTCHAR backslash
ENCODING 92
SWIDTH 750 0
DWIDTH 12 0
BBX 11 11 1 0
BITMAP
0400
0E00
1F00
3180
6EC0
FEE0
79C0
3F80
1B00
0E00
0400
ENDCHAR
STARTCHAR bracketright
ENCODING 93
SWIDTH 750 0
DWIDTH 12 0
BBX 11 11 1 0
BITMAP
0400
0E00
1F00
3180
6EC0
FEE0
79C0
3F80
1B00
0E00
0400
ENDCHAR
STARTCHAR asciicircum
ENCODING 94
SWIDTH 750 0
DWIDTH 12 0
BBX 11 11 1 0
BITMAP
0400
0E00
1F00
3180
6EC0
FEE0
79C0
3F80
1B00
0E00
0400
ENDCHAR
STARTCHAR underscore
ENCODING 95
SWIDTH 750 0
DWIDTH 12 0
BBX 11 11 1 0
BITMAP
0400
0E00
1F00
3180
6EC0
FEE0
79C0
3F80
1B00
0E00
0400
ENDCHAR
STARTCHAR grave
ENCODING 96
SWIDTH 750 0
DWIDTH 12 0
BBX 11 11 1 0
BITMAP
0400
0E00
1F00
3180
6EC0
FEE0
79C0
3F80
1B00
0E00
0400
ENDCHAR
STARTCHAR a
ENCODING 97
SWIDTH 750 0
DWIDTH 12 0
BBX 11 11 1 0
BITMAP
0400
0E00
1F00
3180
6EC0
FEE0
79C0
3F80
1B00
0E00
0400
ENDCHAR
STARTCHAR b
ENCODING 98
SWIDTH 750 0
DWIDTH 12 0
BBX 11 11 1 0
BITMAP
0400
0E00
1F00
3180
6EC0
FEE0
79C0
3F80
1B00
0E00
0400
ENDCHAR
STARTCHAR c
ENCODING 99
SWIDTH 750 0
DWIDTH 12 0
BBX 11 11 1 0
BITMAP
0400
0E00
1F00
3180
6EC0
FEE0
79C0
3F80
1B00
0E00
0400
ENDCHAR
STARTCHAR d
ENCODING 100
SWIDTH 750 0
DWIDTH 12 0
BBX 11 11 1 0
BITMAP
0400
0E00
1F00
3180
6EC0
FEE0
79C0
3F80
1B00
0E00
0400
ENDCHAR
STARTCHAR e
ENCODING 101
SWIDTH 750 0
DWIDTH 12 0
BBX 11 11 1 0
BITMAP
0400
0E00
1F00
3180
6EC0
FEE0
79C0
3F80
1B00
0E00
0400
ENDCHAR
STARTCHAR f
ENCODING 102
SWIDTH 750 0
DWIDTH 12 0
BBX 11 11 1 0
BITMAP
0400
0E00
1F00
3180
6EC0
FEE0
79C0
3F80
1B00
0E00
0400
ENDCHAR
STARTCHAR g
ENCODING 103
SWIDTH 750 0
DWIDTH 12 0
BBX 11 11 1 0
BITMAP
0400
0E00
1F00
3180
6EC0
FEE0
79C0
3F80
1B00
0E00
0400
ENDCHAR
STARTCHAR h
ENCODING 104
SWIDTH 750 0
DWIDTH 12 0
BBX 11 11 1 0
BITMAP
0400
0E00
1F00
3180
6EC0
FEE0
79C0
3F80
1B00
0E00
0400
ENDCHAR
STARTCHAR i
ENCODING 105
SWIDTH 750 0
DWIDTH 12 0
BBX 11 11 1 0
BITMAP
0400
0E00
1F00
3180
6EC0
FEE0
79C0
3F80
1B00
0E00
0400
ENDCHAR
STARTCHAR j
ENCODING 106
SWIDTH 750 0
DWIDTH 12 0
BBX 11 11 1 0
BITMAP
0400
0E00
1F00
3180
6EC0
FEE0
79C0
3F80
1B00
0E00
0400
ENDCHAR
STARTCHAR k
ENCODING 107
SWIDTH 750 0
DWIDTH 12 0
BBX 11 11 1 0
BITMAP
0400
0E00
1F00
3180
6EC0
FEE0
79C0
3F80
1B00
0E00
0400
ENDCHAR
STARTCHAR l
ENCODING 108
SWIDTH 750 0
DWIDTH 12 0
BBX 11 11 1 0
BITMAP
0400
0E00
1F00
3180
6EC0
FEE0
79C0
3F80
1B00
0E00
0400
ENDCHAR
STARTCHAR m
ENCODING 109
SWIDTH 750 0
DWIDTH 12 0
BBX 11 11 1 0
BITMAP
0400
0E00
1F00
3180
6EC0
FEE0
79C0
3F80
1B00
0E00
0400
ENDCHAR
STARTCHAR n
ENCODING 110
SWIDTH 750 0
DWIDTH 12 0
BBX 11 11 1 0
BITMAP
0400
0E00
1F00
3180
6EC0
FEE0
79C0
3F80
1B00
0E00
0400
ENDCHAR
STARTCHAR o
ENCODING 111
SWIDTH 750 0
DWIDTH 12 0
BBX 11 11 1 0
BITMAP
0400
0E00
1F00
3180
6EC0
FEE0
79C0
3F80
1B00
0E00
0400
ENDCHAR
STARTCHAR p
ENCODING 112
SWIDTH 750 0
DWIDTH 12 0
BBX 11 11 1 0
BITMAP
0400
0E00
1F00
3180
6EC0
FEE0
79C0
3F80
1B00
0E00
0400
ENDCHAR
STARTCHAR q
ENCODING 113
SWIDTH 750 0
DWIDTH 12 0
BBX 11 11 1 0
BITMAP
0400
0E00
1F00
3180
6EC0
FEE0
79C0
3F80
1B00
0E00
0400
ENDCHAR
STARTCHAR r
ENCODING 114
SWIDTH 750 0
DWIDTH 12 0
BBX 11 11 1 0
BITMAP
0400
0E00
1F00
3180
6EC0
FEE0
79C0
3F80
1B00
0E00
0400
ENDCHAR
STARTCHAR s
ENCODING 115
SWIDTH 750 0
DWIDTH 12 0
BBX 11 11 1 0
BITMAP
0400
0E00
1F00
3180
6EC0
FEE0
79C0
3F80
1B00
0E00
0400
ENDCHAR
STARTCHAR t
ENCODING 116
SWIDTH 750 0
DWIDTH 12 0
BBX 11 11 1 0
BITMAP
0400
0E00
1F00
3180
6EC0
FEE0
79C0
3F80
1B00
0E00
0400
ENDCHAR
STARTCHAR u
ENCODING 117
SWIDTH 750 0
DWIDTH 12 0
BBX 11 11 1 0
BITMAP
0400
0E00
1F00
3180
6EC0
FEE0
79C0
3F80
1B00
0E00
0400
ENDCHAR
STARTCHAR v
ENCODING 118
SWIDTH 750 0
DWIDTH 12 0
BBX 11 11 1 0
BITMAP
0400
0E00
1F00
3180
6EC0
FEE0
79C0
3F80
1B00
0E00
0400
ENDCHAR
STARTCHAR w
ENCODING 119
SWIDTH 750 0
DWIDTH 12 0
BBX 11 11 1 0
BITMAP
0400
0E00
1F00
3180
6EC0
FEE0
79C0
3F80
1B00
0E00
0400
ENDCHAR
STARTCHAR x
ENCODING 120
SWIDTH 750 0
DWIDTH 12 0
BBX 11 11 1 0
BITMAP
0400
0E00
1F00
3180
6EC0
FEE0
79C0
3F80
1B00
0E00
0400
ENDCHAR
STARTCHAR y
ENCODING 121
SWIDTH 750 0
DWIDTH 12 0
BBX 11 11 1 0
BITMAP
0400
0E00
1F00
3180
6EC0
FEE0
79C0
3F80
1B00
0E00
0400
ENDCHAR
STARTCHAR z
ENCODING 122
SWIDTH 750 0
DWIDTH 12 0
BBX 11 11 1 0
BITMAP
0400
0E00
1F00
3180
6EC0
FEE0
79C0
3F80
1B00
0E00
0400
ENDCHAR
STARTCHAR braceleft
ENCODING 123
SWIDTH 750 0
DWIDTH 12 0
BBX 11 11 1 0
BITMAP
0400
0E00
1F00
3180
6EC0
FEE0
79C0
3F80
1B00
0E00
0400
ENDCHAR
STARTCHAR bar
ENCODING 124
SWIDTH 750 0
DWIDTH 12 0
BBX 11 11 1 0
BITMAP
0400
0E00
1F00
3180
6EC0
FEE0
79C0
3F80
1B00
0E00
0400
ENDCHAR
STARTCHAR braceright
ENCODING 125
SWIDTH 750 0
DWIDTH 12 0
BBX 11 11 1 0
BITMAP
0400
0E00
1F00
3180
6EC0
FEE0
79C0
3F80
1B00
0E00
0400
ENDCHAR
STARTCHAR asciitilde
ENCODING 126
SWIDTH 750 0
DWIDTH 12 0
BBX 11 11 1 0
BITMAP
0400
0E00
1F00
3180
6EC0
FEE0
79C0
3F80
1B00
0E00
0400
ENDCHAR
STARTCHAR uni007F
ENCODING 127
SWIDTH 750 0
DWIDTH 12 0
BBX 11 11 1 0
BITMAP
0400
0E00
1F00
3180
6EC0
FEE0
79C0
3F80
1B00
0E00
0400
ENDCHAR
STARTCHAR uni00A0
ENCODING 160
SWIDTH 750 0
DWIDTH 12 0
BBX 11 11 1 0
BITMAP
0400
0E00
1F00
3180
6EC0
FEE0
79C0
3F80
1B00
0E00
0400
ENDCHAR
STARTCHAR exclamdown
ENCODING 161
SWIDTH 750 0
DWIDTH 12 0
BBX 11 11 1 0
BITMAP
0400
0E00
1F00
3180
6EC0
FEE0
79C0
3F80
1B00
0E00
0400
ENDCHAR
STARTCHAR cent
ENCODING 162
SWIDTH 750 0
DWIDTH 12 0
BBX 11 11 1 0
BITMAP
0400
0E00
1F00
3180
6EC0
FEE0
79C0
3F80
1B00
0E00
0400
ENDCHAR
STARTCHAR sterling
ENCODING 163
SWIDTH 750 0
DWIDTH 12 0
BBX 11 11 1 0
BITMAP
0400
0E00
1F00
3180
6EC0
FEE0
79C0
3F80
1B00
0E00
0400
ENDCHAR
STARTCHAR Euro
ENCODING 164
SWIDTH 750 0
DWIDTH 12 0
BBX 11 11 1 0
BITMAP
0400
0E00
1F00
3180
6EC0
FEE0
79C0
3F80
1B00
0E00
0400
ENDCHAR
STARTCHAR yen
ENCODING 165
SWIDTH 750 0
DWIDTH 12 0
BBX 11 11 1 0
BITMAP
0400
0E00
1F00
3180
6EC0
FEE0
79C0
3F80
1B00
0E00
0400
ENDCHAR
STARTCHAR Scaron
ENCODING 166
SWIDTH 750 0
DWIDTH 12 0
BBX 11 11 1 0
BITMAP
0400
0E00
1F00
3180
6EC0
FEE0
79C0
3F80
1B00
0E00
0400
ENDCHAR
STARTCHAR section
ENCODING 167
SWIDTH 750 0
DWIDTH 12 0
BBX 11 11 1 0
BITMAP
0400
0E00
1F00
3180
6EC0
FEE0
79C0
3F80
1B00
0E00
0400
ENDCHAR
STARTCHAR scaron
ENCODING 168
SWIDTH 750 0
DWIDTH 12 0
BBX 11 11 1 0
BITMAP
0400
0E00
1F00
3180
6EC0
FEE0
79C0
3F80
1B00
0E00
0400
ENDCHAR
STARTCHAR copyright
ENCODING 169
SWIDTH 750 0
DWIDTH 12 0
BBX 11 11 1 0
BITMAP
0400
0E00
1F00
3180
6EC0
FEE0
79C0
3F80
1B00
0E00
0400
ENDCHAR
STARTCHAR ordfeminine
ENCODING 170
SWIDTH 750 0
DWIDTH 12 0
BBX 11 11 1 0
BITMAP
0400
0E00
1F00
3180
6EC0
FEE0
79C0
3F80
1B00
0E00
0400
ENDCHAR
STARTCHAR guillemotleft
ENCODING 171
SWIDTH 750 0
DWIDTH 12 0
BBX 11 11 1 0
BITMAP
0400
0E00
1F00
3180
6EC0
FEE0
79C0
3F80
1B00
0E00
0400
ENDCHAR
STARTCHAR logicalnot
ENCODING 172
SWIDTH 750 0
DWIDTH 12 0
BBX 11 11 1 0
BITMAP
0400
0E00
1F00
3180
6EC0
FEE0
79C0
3F80
1B00
0E00
0400
ENDCHAR
STARTCHAR uni00AD
ENCODING 173
SWIDTH 750 0
DWIDTH 12 0
BBX 11 11 1 0
BITMAP
0400
0E00
1F00
3180
6EC0
FEE0
79C0
3F80
1B00
0E00
0400
ENDCHAR
STARTCHAR registered
ENCODING 174
SWIDTH 750 0
DWIDTH 12 0
BBX 11 11 1 0
BITMAP
0400
0E00
1F00
3180
6EC0
FEE0
79C0
3F80
1B00
0E00
0400
ENDCHAR
STARTCHAR macron
ENCODING 175
SWIDTH 750 0
DWIDTH 12 0
BBX 11 11 1 0
BITMAP
0400
0E00
1F00
3180
6EC0
FEE0
79C0
3F80
1B00
0E00
0400
ENDCHAR
STARTCHAR degree
ENCODING 176
SWIDTH 750 0
DWIDTH 12 0
BBX 11 11 1 0
BITMAP
0400
0E00
1F00
3180
6EC0
FEE0
79C0
3F80
1B00
0E00
0400
ENDCHAR
STARTCHAR plusminus
ENCODING 177
SWIDTH 750 0
DWIDTH 12 0
BBX 11 11 1 0
BITMAP
0400
0E00
1F00
3180
6EC0
FEE0
79C0
3F80
1B00
0E00
0400
ENDCHAR
STARTCHAR uni00B2
ENCODING 178
SWIDTH 750 0
DWIDTH 12 0
BBX 11 11 1 0
BITMAP
0400
0E00
1F00
3180
6EC0
FEE0
79C0
3F80
1B00
0E00
0400
ENDCHAR
STARTCHAR uni00B3
ENCODING 179
SWIDTH 750 0
DWIDTH 12 0
BBX 11 11 1 0
BITMAP
0400
0E00
1F00
3180
6EC0
FEE0
79C0
3F80
1B00
0E00
0400
ENDCHAR
STARTCHAR Zcaron
ENCODING 180
SWIDTH 750 0
DWIDTH 12 0
BBX 11 11 1 0
BITMAP
0400
0E00
1F00
3180
6EC0
FEE0
79C0
3F80
1B00
0E00
0400
ENDCHAR
STARTCHAR mu
ENCODING 181
SWIDTH 750 0
DWIDTH 12 0
BBX 11 11 1 0
BITMAP
0400
0E00
1F00
3180
6EC0
FEE0
79C0
3F80
1B00
0E00
0400
ENDCHAR
STARTCHAR paragraph
ENCODING 182
SWIDTH 750 0
DWIDTH 12 0
BBX 11 11 1 0
BITMAP
0400
0E00
1F00
3180
6EC0
FEE0
79C0
3F80
1B00
0E00
0400
ENDCHAR
STARTCHAR periodcentered
ENCODING 183
SWIDTH 750 0
DWIDTH 12 0
BBX 11 11 1 0
BITMAP
0400
0E00
1F00
3180
6EC0
FEE0
79C0
3F80
1B00
0E00
0400
ENDCHAR
STARTCHAR zcaron
ENCODING 184
SWIDTH 750 0
DWIDTH 12 0
BBX 11 11 1 0
BITMAP
0400
0E00
1F00
3180
6EC0
FEE0
79C0
3F80
1B00
0E00
0400
ENDCHAR
STARTCHAR uni00B9
ENCODING 185
SWIDTH 750 0
DWIDTH 12 0
BBX 11 11 1 0
BITMAP
0400
0E00
1F00
3180
6EC0
FEE0
79C0
3F80
1B00
0E00
0400
ENDCHAR
STARTCHAR ordmasculine
ENCODING 186
SWIDTH 750 0
DWIDTH 12 0
BBX 11 11 1 0
BITMAP
0400
0E00
1F00
3180
6EC0
FEE0
79C0
3F80
1B00
0E00
0400
ENDCHAR
STARTCHAR guillemotright
ENCODING 187
SWIDTH 750 0
DWIDTH 12 0
BBX 11 11 1 0
BITMAP
0400
0E00
1F00
3180
6EC0
FEE0
79C0
3F80
1B00
0E00
0400
ENDCHAR
STARTCHAR OE
ENCODING 188
SWIDTH 750 0
DWIDTH 12 0
BBX 11 11 1 0
BITMAP
0400
0E00
1F00
3180
6EC0
FEE0
79C0
3F80
1B00
0E00
0400
ENDCHAR
STARTCHAR oe
ENCODING 189
SWIDTH 750 0
DWIDTH 12 0
BBX 11 11 1 0
BITMAP
0400
0E00
1F00
3180
6EC0
FEE0
79C0
3F80
1B00
0E00
0400
ENDCHAR
STARTCHAR Ydieresis
ENCODING 190
SWIDTH 750 0
DWIDTH 12 0
BBX 11 11 1 0
BITMAP
0400
0E00
1F00
3180
6EC0
FEE0
79C0
3F80
1B00
0E00
0400
ENDCHAR
STARTCHAR questiondown
ENCODING 191
SWIDTH 750 0
DWIDTH 12 0
BBX 11 11 1 0
BITMAP
0400
0E00
1F00
3180
6EC0
FEE0
79C0
3F80
1B00
0E00
0400
ENDCHAR
STARTCHAR Agrave
ENCODING 192
SWIDTH 750 0
DWIDTH 12 0
BBX 11 11 1 0
BITMAP
0400
0E00
1F00
3180
6EC0
FEE0
79C0
3F80
1B00
0E00
0400
ENDCHAR
STARTCHAR Aacute
ENCODING 193
SWIDTH 750 0
DWIDTH 12 0
BBX 11 11 1 0
BITMAP
0400
0E00
1F00
3180
6EC0
FEE0
79C0
3F80
1B00
0E00
0400
ENDCHAR
STARTCHAR Acircumflex
ENCODING 194
SWIDTH 750 0
DWIDTH 12 0
BBX 11 11 1 0
BITMAP
0400
0E00
1F00
3180
6EC0
FEE0
79C0
3F80
1B00
0E00
0400
ENDCHAR
STARTCHAR Atilde
ENCODING 195
SWIDTH 750 0
DWIDTH 12 0
BBX 11 11 1 0
BITMAP
0400
0E00
1F00
3180
6EC0
FEE0
79C0
3F80
1B00
0E00
0400
ENDCHAR
STARTCHAR Adieresis
ENCODING 196
SWIDTH 750 0
DWIDTH 12 0
BBX 11 11 1 0
BITMAP
0400
0E00
1F00
3180
6EC0
FEE0
79C0
3F80
1B00
0E00
0400
ENDCHAR
STARTCHAR Aring
ENCODING 197
SWIDTH 750 0
DWIDTH 12 0
BBX 11 11 1 0
BITMAP
0400
0E00
1F00
3180
6EC0
FEE0
79C0
3F80
1B00
0E00
0400
ENDCHAR
STARTCHAR AE
ENCODING 198
SWIDTH 750 0
DWIDTH 12 0
BBX 11 11 1 0
BITMAP
0400
0E00
1F00
3180
6EC0
FEE0
79C0
3F80
1B00
0E00
0400
ENDCHAR
STARTCHAR Ccedilla
ENCODING 199
SWIDTH 750 0
DWIDTH 12 0
BBX 11 11 1 0
BITMAP
0400
0E00
1F00
3180
6EC0
FEE0
79C0
3F80
1B00
0E00
0400
ENDCHAR
STARTCHAR Egrave
ENCODING 200
SWIDTH 750 0
DWIDTH 12 0
BBX 11 11 1 0
BITMAP
0400
0E00
1F00
3180
6EC0
FEE0
79C0
3F80
1B00
0E00
0400
ENDCHAR
STARTCHAR Eacute
ENCODING 201
SWIDTH 750 0
DWIDTH 12 0
BBX 11 11 1 0
BITMAP
0400
0E00
1F00
3180
6EC0
FEE0
79C0
3F80
1B00
0E00
0400
ENDCHAR
STARTCHAR Ecircumflex
ENCODING 202
SWIDTH 750 0
DWIDTH 12 0
BBX 11 11 1 0
BITMAP
0400
0E00
1F00
3180
6EC0
FEE0
79C0
3F80
1B00
0E00
0400
ENDCHAR
STARTCHAR Edieresis
ENCODING 203
SWIDTH 750 0
DWIDTH 12 0
BBX 11 11 1 0
BITMAP
0400
0E00
1F00
3180
6EC0
FEE0
79C0
3F80
1B00
0E00
0400
ENDCHAR
STARTCHAR Igrave
ENCODING 204
SWIDTH 750 0
DWIDTH 12 0
BBX 11 11 1 0
BITMAP
0400
0E00
1F00
3180
6EC0
FEE0
79C0
3F80
1B00
0E00
0400
ENDCHAR
STARTCHAR Iacute
ENCODING 205
SWIDTH 750 0
DWIDTH 12 0
BBX 11 11 1 0
BITMAP
0400
0E00
1F00
3180
6EC0
FEE0
79C0
3F80
1B00
0E00
0400
ENDCHAR
STARTCHAR Icircumflex
ENCODING 206
SWIDTH 750 0
DWIDTH 12 0
BBX 11 11 1 0
BITMAP
0400
0E00
1F00
3180
6EC0
FEE0
79C0
3F80
1B00
0E00
0400
ENDCHAR
STARTCHAR Idieresis
ENCODING 207
SWIDTH 750 0
DWIDTH 12 0
BBX 11 11 1 0
BITMAP
0400
0E00
1F00
3180
6EC0
FEE0
79C0
3F80
1B00
0E00
0400
ENDCHAR
STARTCHAR Eth
ENCODING 208
SWIDTH 750 0
DWIDTH 12 0
BBX 11 11 1 0
BITMAP
0400
0E00
1F00
3180
6EC0
FEE0
79C0
3F80
1B00
0E00
0400
ENDCHAR
STARTCHAR Ntilde
ENCODING 209
SWIDTH 750 0
DWIDTH 12 0
BBX 11 11 1 0
BITMAP
0400
0E00
1F00
3180
6EC0
FEE0
79C0
3F80
1B00
0E00
0400
ENDCHAR
STARTCHAR Ograve
ENCODING 210
SWIDTH 750 0
DWIDTH 12 0
BBX 11 11 1 0
BITMAP
0400
0E00
1F00
3180
6EC0
FEE0
79C0
3F80
1B00
0E00
0400
ENDCHAR
STARTCHAR Oacute
ENCODING 211
SWIDTH 750 0
DWIDTH 12 0
BBX 11 11 1 0
BITMAP
0400
0E00
1F00
3180
6EC0
FEE0
79C0
3F80
1B00
0E00
0400
ENDCHAR
STARTCHAR Ocircumflex
ENCODING 212
SWIDTH 750 0
DWIDTH 12 0
BBX 11 11 1 0
BITMAP
0400
0E00
1F00
3180
6EC0
FEE0
79C0
3F80
1B00
0E00
0400
ENDCHAR
STARTCHAR Otilde
ENCODING 213
SWIDTH 750 0
DWIDTH 12 0
BBX 11 11 1 0
BITMAP
0400
0E00
1F00
3180
6EC0
FEE0
79C0
3F80
1B00
0E00
0400
ENDCHAR
STARTCHAR Odieresis
ENCODING 214
SWIDTH 750 0
DWIDTH 12 0
BBX 11 11 1 0
BITMAP
0400
0E00
1F00
3180
6EC0
FEE0
79C0
3F80
1B00
0E00
0400
ENDCHAR
STARTCHAR multiply
ENCODING 215
SWIDTH 750 0
DWIDTH 12 0
BBX 11 11 1 0
BITMAP
0400
0E00
1F00
3180
6EC0
FEE0
79C0
3F80
1B00
0E00
0400
ENDCHAR
STARTCHAR Oslash
ENCODING 216
SWIDTH 750 0
DWIDTH 12 0
BBX 11 11 1 0
BITMAP
0400
0E00
1F00
3180
6EC0
FEE0
79C0
3F80
1B00
0E00
0400
ENDCHAR
STARTCHAR Ugrave
ENCODING 217
SWIDTH 750 0
DWIDTH 12 0
BBX 11 11 1 0
BITMAP
0400
0E00
1F00
3180
6EC0
FEE0
79C0
3F80
1B00
0E00
0400
ENDCHAR
STARTCHAR Uacute
ENCODING 218
SWIDTH 750 0
DWIDTH 12 0
BBX 11 11 1 0
BITMAP
0400
0E00
1F00
3180
6EC0
FEE0
79C0
3F80
1B00
0E00
0400
ENDCHAR
STARTCHAR Ucircumflex
ENCODING 219
SWIDTH 750 0
DWIDTH 12 0
BBX 11 11 1 0
BITMAP
0400
0E00
1F00
3180
6EC0
FEE0
79C0
3F80
1B00
0E00
0400
ENDCHAR
STARTCHAR Udieresis
ENCODING 220
SWIDTH 750 0
DWIDTH 12 0
BBX 11 11 1 0
BITMAP
0400
0E00
1F00
3180
6EC0
FEE0
79C0
3F80
1B00
0E00
0400
ENDCHAR
STARTCHAR Yacute
ENCODING 221
SWIDTH 750 0
DWIDTH 12 0
BBX 11 11 1 0
BITMAP
0400
0E00
1F00
3180
6EC0
FEE0
79C0
3F80
1B00
0E00
0400
ENDCHAR
STARTCHAR Thorn
ENCODING 222
SWIDTH 750 0
DWIDTH 12 0
BBX 11 11 1 0
BITMAP
0400
0E00
1F00
3180
6EC0
FEE0
79C0
3F80
1B00
0E00
0400
ENDCHAR
STARTCHAR germandbls
ENCODING 223
SWIDTH 750 0
DWIDTH 12 0
BBX 11 11 1 0
BITMAP
0400
0E00
1F00
3180
6EC0
FEE0
79C0
3F80
1B00
0E00
0400
ENDCHAR
STARTCHAR agrave
ENCODING 224
SWIDTH 750 0
DWIDTH 12 0
BBX 11 11 1 0
BITMAP
0400
0E00
1F00
3180
6EC0
FEE0
79C0
3F80
1B00
0E00
0400
ENDCHAR
STARTCHAR aacute
ENCODING 225
SWIDTH 750 0
DWIDTH 12 0
BBX 11 11 1 0
BITMAP
0400
0E00
1F00
3180
6EC0
FEE0
79C0
3F80
1B00
0E00
0400
ENDCHAR
STARTCHAR acircumflex
ENCODING 226
SWIDTH 750 0
DWIDTH 12 0
BBX 11 11 1 0
BITMAP
0400
0E00
1F00
3180
6EC0
FEE0
79C0
3F80
1B00
0E00
0400
ENDCHAR
STARTCHAR atilde
ENCODING 227
SWIDTH 750 0
DWIDTH 12 0
BBX 11 11 1 0
BITMAP
0400
0E00
1F00
3180
6EC0
FEE0
79C0
3F80
1B00
0E00
0400
ENDCHAR
STARTCHAR adieresis
ENCODING 228
SWIDTH 750 0
DWIDTH 12 0
BBX 11 11 1 0
BITMAP
0400
0E00
1F00
3180
6EC0
FEE0
79C0
3F80
1B00
0E00
0400
ENDCHAR
STARTCHAR aring
ENCODING 229
SWIDTH 750 0
DWIDTH 12 0
BBX 11 11 1 0
BITMAP
0400
0E00
1F00
3180
6EC0
FEE0
79C0
3F80
1B00
0E00
0400
ENDCHAR
STARTCHAR ae
ENCODING 230
SWIDTH 750 0
DWIDTH 12 0
BBX 11 11 1 0
BITMAP
0400
0E00
1F00
3180
6EC0
FEE0
79C0
3F80
1B00
0E00
0400
ENDCHAR
STARTCHAR ccedilla
ENCODING 231
SWIDTH 750 0
DWIDTH 12 0
BBX 11 11 1 0
BITMAP
0400
0E00
1F00
3180
6EC0
FEE0
79C0
3F80
1B00
0E00
0400
ENDCHAR
STARTCHAR egrave
ENCODING 232
SWIDTH 750 0
DWIDTH 12 0
BBX 11 11 1 0
BITMAP
0400
0E00
1F00
3180
6EC0
FEE0
79C0
3F80
1B00
0E00
0400
ENDCHAR
STARTCHAR eacute
ENCODING 233
SWIDTH 750 0
DWIDTH 12 0
BBX 11 11 1 0
BITMAP
0400
0E00
1F00
3180
6EC0
FEE0
79C0
3F80
1B00
0E00
0400
ENDCHAR
STARTCHAR ecircumflex
ENCODING 234
SWIDTH 750 0
DWIDTH 12 0
BBX 11 11 1 0
BITMAP
0400
0E00
1F00
3180
6EC0
FEE0
79C0
3F80
1B00
0E00
0400
ENDCHAR
STARTCHAR edieresis
ENCODING 235
SWIDTH 750 0
DWIDTH 12 0
BBX 11 11 1 0
BITMAP
0400
0E00
1F00
3180
6EC0
FEE0
79C0
3F80
1B00
0E00
0400
ENDCHAR
STARTCHAR igrave
ENCODING 236
SWIDTH 750 0
DWIDTH 12 0
BBX 11 11 1 0
BITMAP
0400
0E00
1F00
3180
6EC0
FEE0
79C0
3F80
1B00
0E00
0400
ENDCHAR
STARTCHAR iacute
ENCODING 237
SWIDTH 750 0
DWIDTH 12 0
BBX 11 11 1 0
BITMAP
0400
0E00
1F00
3180
6EC0
FEE0
79C0
3F80
1B00
0E00
0400
ENDCHAR
STARTCHAR icircumflex
ENCODING 238
SWIDTH 750 0
DWIDTH 12 0
BBX 11 11 1 0
BITMAP
0400
0E00
1F00
3180
6EC0
FEE0
79C0
3F80
1B00
0E00
0400
ENDCHAR
STARTCHAR idieresis
ENCODING 239
SWIDTH 750 0
DWIDTH 12 0
BBX 11 11 1 0
BITMAP
0400
0E00
1F00
3180
6EC0
FEE0
79C0
3F80
1B00
0E00
0400
ENDCHAR
STARTCHAR eth
ENCODING 240
SWIDTH 750 0
DWIDTH 12 0
BBX 11 11 1 0
BITMAP
0400
0E00
1F00
3180
6EC0
FEE0
79C0
3F80
1B00
0E00
0400
ENDCHAR
STARTCHAR ntilde
ENCODING 241
SWIDTH 750 0
DWIDTH 12 0
BBX 11 11 1 0
BITMAP
0400
0E00
1F00
3180
6EC0
FEE0
79C0
3F80
1B00
0E00
0400
ENDCHAR
STARTCHAR ograve
ENCODING 242
SWIDTH 750 0
DWIDTH 12 0
BBX 11 11 1 0
BITMAP
0400
0E00
1F00
3180
6EC0
FEE0
79C0
3F80
1B00
0E00
0400
ENDCHAR
STARTCHAR oacute
ENCODING 243
SWIDTH 750 0
DWIDTH 12 0
BBX 11 11 1 0
BITMAP
0400
0E00
1F00
3180
6EC0
FEE0
79C0
3F80
1B00
0E00
0400
ENDCHAR
STARTCHAR ocircumflex
ENCODING 244
SWIDTH 750 0
DWIDTH 12 0
BBX 11 11 1 0
BITMAP
0400
0E00
1F00
3180
6EC0
FEE0
79C0
3F80
1B00
0E00
0400
ENDCHAR
STARTCHAR otilde
ENCODING 245
SWIDTH 750 0
DWIDTH 12 0
BBX 11 11 1 0
BITMAP
0400
0E00
1F00
3180
6EC0
FEE0
79C0
3F80
1B00
0E00
0400
ENDCHAR
STARTCHAR odieresis
ENCODING 246
SWIDTH 750 0
DWIDTH 12 0
BBX 11 11 1 0
BITMAP
0400
0E00
1F00
3180
6EC0
FEE0
79C0
3F80
1B00
0E00
0400
ENDCHAR
STARTCHAR divide
ENCODING 247
SWIDTH 750 0
DWIDTH 12 0
BBX 11 11 1 0
BITMAP
0400
0E00
1F00
3180
6EC0
FEE0
79C0
3F80
1B00
0E00
0400
ENDCHAR
STARTCHAR oslash
ENCODING 248
SWIDTH 750 0
DWIDTH 12 0
BBX 11 11 1 0
BITMAP
0400
0E00
1F00
3180
6EC0
FEE0
79C0
3F80
1B00
0E00
0400
ENDCHAR
STARTCHAR ugrave
ENCODING 249
SWIDTH 750 0
DWIDTH 12 0
BBX 11 11 1 0
BITMAP
0400
0E00
1F00
3180
6EC0
FEE0
79C0
3F80
1B00
0E00
0400
ENDCHAR
STARTCHAR uacute
ENCODING 250
SWIDTH 750 0
DWIDTH 12 0
BBX 11 11 1 0
BITMAP
0400
0E00
1F00
3180
6EC0
FEE0
79C0
3F80
1B00
0E00
0400
ENDCHAR
STARTCHAR ucircumflex
ENCODING 251
SWIDTH 750 0
DWIDTH 12 0
BBX 11 11 1 0
BITMAP
0400
0E00
1F00
3180
6EC0
FEE0
79C0
3F80
1B00
0E00
0400
ENDCHAR
STARTCHAR udieresis
ENCODING 252
SWIDTH 750 0
DWIDTH 12 0
BBX 11 11 1 0
BITMAP
0400
0E00
1F00
3180
6EC0
FEE0
79C0
3F80
1B00
0E00
0400
ENDCHAR
STARTCHAR yacute
ENCODING 253
SWIDTH 750 0
DWIDTH 12 0
BBX 11 11 1 0
BITMAP
0400
0E00
1F00
3180
6EC0
FEE0
79C0
3F80
1B00
0E00
0400
ENDCHAR
STARTCHAR thorn
ENCODING 254
SWIDTH 750 0
DWIDTH 12 0
BBX 11 11 1 0
BITMAP
0400
0E00
1F00
3180
6EC0
FEE0
79C0
3F80
1B00
0E00
0400
ENDCHAR
STARTCHAR ydieresis
ENCODING 255
SWIDTH 750 0
DWIDTH 12 0
BBX 11 11 1 0
BITMAP
0400
0E00
1F00
3180
6EC0
FEE0
79C0
3F80
1B00
0E00
0400
ENDCHAR
ENDFONT
